<svg id="visual" viewBox="0 0 960 540" width="960" height="540" xmlns="http://www.w3.org/2000/svg" xmlns:xlink="http://www.w3.org/1999/xlink" version="1.1"><rect x="0" y="0" width="960" height="540" fill="#001220"></rect><path d="M0 395L22.8 384.8C45.7 374.7 91.3 354.3 137 348.7C182.7 343 228.3 352 274 360.2C319.7 368.3 365.3 375.7 411.2 373.5C457 371.3 503 359.7 548.8 351.8C594.7 344 640.3 340 686 346.3C731.7 352.7 777.3 369.3 823 374.7C868.7 380 914.3 374 937.2 371L960 368L960 541L937.2 541C914.3 541 868.7 541 823 541C777.3 541 731.7 541 686 541C640.3 541 594.7 541 548.8 541C503 541 457 541 411.2 541C365.3 541 319.7 541 274 541C228.3 541 182.7 541 137 541C91.3 541 45.7 541 22.8 541L0 541Z" fill="#fa7268"></path><path d="M0 399L22.8 395.8C45.7 392.7 91.3 386.3 137 387.3C182.7 388.3 228.3 396.7 274 405.3C319.7 414 365.3 423 411.2 424.7C457 426.3 503 420.7 548.8 407.7C594.7 394.7 640.3 374.3 686 373.8C731.7 373.3 777.3 392.7 823 404.5C868.7 416.3 914.3 420.7 937.2 422.8L960 425L960 541L937.2 541C914.3 541 868.7 541 823 541C777.3 541 731.7 541 686 541C640.3 541 594.7 541 548.8 541C503 541 457 541 411.2 541C365.3 541 319.7 541 274 541C228.3 541 182.7 541 137 541C91.3 541 45.7 541 22.8 541L0 541Z" fill="#ef5f67"></path><path d="M0 432L22.8 433.3C45.7 434.7 91.3 437.3 137 431.8C182.7 426.3 228.3 412.7 274 407.7C319.7 402.7 365.3 406.3 411.2 413.3C457 420.3 503 430.7 548.8 429.2C594.7 427.7 640.3 414.3 686 415.8C731.7 417.3 777.3 433.7 823 434.7C868.7 435.7 914.3 421.3 937.2 414.2L960 407L960 541L937.2 541C914.3 541 868.7 541 823 541C777.3 541 731.7 541 686 541C640.3 541 594.7 541 548.8 541C503 541 457 541 411.2 541C365.3 541 319.7 541 274 541C228.3 541 182.7 541 137 541C91.3 541 45.7 541 22.8 541L0 541Z" fill="#e34c67"></path><path d="M0 444L22.8 442.5C45.7 441 91.3 438 137 438.3C182.7 438.7 228.3 442.3 274 446.3C319.7 450.3 365.3 454.7 411.2 458C457 461.3 503 463.7 548.8 460.5C594.7 457.3 640.3 448.7 686 448.7C731.7 448.7 777.3 457.3 823 461C868.7 464.7 914.3 463.3 937.2 462.7L960 462L960 541L937.2 541C914.3 541 868.7 541 823 541C777.3 541 731.7 541 686 541C640.3 541 594.7 541 548.8 541C503 541 457 541 411.2 541C365.3 541 319.7 541 274 541C228.3 541 182.7 541 137 541C91.3 541 45.7 541 22.8 541L0 541Z" fill="#d53867"></path><path d="M0 479L22.8 481C45.7 483 91.3 487 137 488.2C182.7 489.3 228.3 487.7 274 487C319.7 486.3 365.3 486.7 411.2 486.5C457 486.3 503 485.7 548.8 486.7C594.7 487.7 640.3 490.3 686 489.3C731.7 488.3 777.3 483.7 823 481.2C868.7 478.7 914.3 478.3 937.2 478.2L960 478L960 541L937.2 541C914.3 541 868.7 541 823 541C777.3 541 731.7 541 686 541C640.3 541 594.7 541 548.8 541C503 541 457 541 411.2 541C365.3 541 319.7 541 274 541C228.3 541 182.7 541 137 541C91.3 541 45.7 541 22.8 541L0 541Z" fill="#c62368"></path></svg>